HIERARCHY
ROOT SpineBase
{
  OFFSET 0.000000 0.000000 0.000000
  CHANNELS 6 Xposition Yposition Zposition Zrotation Xrotation Yrotation
  JOINT SpineMid
  {
    OFFSET 0.000000 29.799921 0.000000
    CHANNELS 3 Zrotation Xrotation Yrotation
    JOINT SpineShoulder
    {
      OFFSET 0.937078 22.187592 -1.092247
      CHANNELS 3 Zrotation Xrotation Yrotation
      JOINT Neck
      {
        OFFSET 0.330950 7.518112 -0.646320
        CHANNELS 3 Zrotation Xrotation Yrotation
        JOINT Head
        {
          OFFSET 4.606918 12.992490 2.809492
          CHANNELS 3 Zrotation Xrotation Yrotation
          End Site
          {
            OFFSET 0 0 0
          }
        }
      }
      JOINT ShoulderLeft
      {
        OFFSET -9.069865 -2.265442 -12.394355
        CHANNELS 3 Zrotation Xrotation Yrotation
        JOINT ElbowLeft
        {
          OFFSET -7.036845 -24.435987 -5.489024
          CHANNELS 3 Zrotation Xrotation Yrotation
          JOINT WristLeft
          {
            OFFSET 2.433774 -24.832817 -4.512061
            CHANNELS 3 Zrotation Xrotation Yrotation
            JOINT HandLeft
            {
              OFFSET 1.316357 -3.813214 -0.422984
              CHANNELS 3 Zrotation Xrotation Yrotation
              JOINT HandTipLeft
              {
                OFFSET 1.761304 -8.104145 -1.102880
                CHANNELS 3 Zrotation Xrotation Yrotation
                End Site
                {
                  OFFSET 0 0 0
                }
              }
              JOINT ThumbLeft
              {
                OFFSET -2.935670 -0.319786 -0.218527
                CHANNELS 3 Zrotation Xrotation Yrotation
                End Site
                {
                  OFFSET 0 0 0
                }
              }
            }
          }
        }
      }
      JOINT ShoulderRight
      {
        OFFSET 9.850740 -6.512838 12.020487
        CHANNELS 3 Zrotation Xrotation Yrotation
        JOINT ElbowRight
        {
          OFFSET 1.847907 -23.069362 10.763924
          CHANNELS 3 Zrotation Xrotation Yrotation
          JOINT WristRight
          {
            OFFSET 5.400374 -25.345975 1.708939
            CHANNELS 3 Zrotation Xrotation Yrotation
            JOINT HandRight
            {
              OFFSET 2.923322 -5.623999 0.324076
              CHANNELS 3 Zrotation Xrotation Yrotation
              JOINT HandTipRight
              {
                OFFSET 6.075475 -3.592305 -2.519348
                CHANNELS 3 Zrotation Xrotation Yrotation
                End Site
                {
                  OFFSET 0 0 0
                }
              }
              JOINT ThumbRight
              {
                OFFSET -2.996139 -0.454684 -2.354742
                CHANNELS 3 Zrotation Xrotation Yrotation
                End Site
                {
                  OFFSET 0 0 0
                }
              }
            }
          }
        }
      }
    }
  }
  JOINT HipLeft
  {
    OFFSET -3.457087 2.011086 -7.928763
    CHANNELS 3 Zrotation Xrotation Yrotation
    JOINT KneeLeft
    {
      OFFSET 3.148101 -30.244673 -21.099464
      CHANNELS 3 Zrotation Xrotation Yrotation
      JOINT AnkleLeft
      {
        OFFSET -24.620842 -12.734170 10.362374
        CHANNELS 3 Zrotation Xrotation Yrotation
        JOINT FootLeft
        {
          OFFSET 4.124243 -6.226585 -12.179728
          CHANNELS 3 Zrotation Xrotation Yrotation
          End Site
          {
            OFFSET 0 0 0
          }
        }
      }
    }
  }
  JOINT HipRight
  {
    OFFSET 4.395631 -0.225207 1.618897
    CHANNELS 3 Zrotation Xrotation Yrotation
    JOINT KneeRight
    {
      OFFSET 5.017973 -33.001732 7.357706
      CHANNELS 3 Zrotation Xrotation Yrotation
      JOINT AnkleRight
      {
        OFFSET -1.927130 -32.229059 1.699897
        CHANNELS 3 Zrotation Xrotation Yrotation
        JOINT FootRight
        {
          OFFSET 7.118266 -4.077017 -1.398484
          CHANNELS 3 Zrotation Xrotation Yrotation
          End Site
          {
            OFFSET 0 0 0
          }
        }
      }
    }
  }
}
MOTION
Frames: 5
Frame Time: 0.033333
-50.166294 68.637332 337.000786 9.850061 3.053856 -4.188489 2.059519 0.257936 4.422856 -0.968735 -1.962155 0.602430 9.741086 -22.959008 7.479573 0.000000 0.000000 0.000000 8.343475 -4.379111 -3.748821 40.855501 39.814608 -25.929120 -8.349109 -0.272829 11.163748 7.648551 3.255046 -5.140452 0.000000 0.000000 0.000000 0.000000 0.000000 0.000000 -10.193309 50.655801 4.168998 -18.450345 -12.073572 -8.195736 -33.603415 -1.440956 -5.788450 -0.785787 -29.964273 34.529792 0.000000 0.000000 0.000000 0.000000 0.000000 0.000000 -25.389965 -58.090175 0.551432 111.368921 16.772866 -58.935381 -93.449357 -17.892079 -3.061881 0.000000 0.000000 0.000000 -137.741148 81.650491 149.594691 -137.724826 -63.289612 -135.836112 -30.283991 30.528397 69.545084 0.000000 0.000000 0.000000
-49.504283 68.179569 335.081709 11.237011 4.726783 -2.164984 2.075424 -0.281998 2.298238 -1.129728 -1.118686 0.515308 7.569197 -21.994914 6.125615 0.000000 0.000000 0.000000 6.649023 -6.652339 -3.089524 42.875537 40.264630 -27.360859 -10.784625 0.866573 10.659916 8.614740 3.653012 -5.065495 0.000000 0.000000 0.000000 0.000000 0.000000 0.000000 -11.203834 47.698365 3.722087 -17.618912 -11.456091 -7.379698 -30.111643 -3.712226 -6.022347 -5.832592 -28.648755 31.838631 0.000000 0.000000 0.000000 0.000000 0.000000 0.000000 -33.967450 -61.172790 -6.019705 115.253130 12.962432 -60.694526 -100.546424 -20.989384 -2.191244 0.000000 0.000000 0.000000 -120.995583 83.802228 127.880942 -146.494977 -54.963193 -145.240442 -29.320782 40.826914 75.928711 0.000000 0.000000 0.000000
-48.950351 67.930915 334.068649 12.357629 5.657877 -1.333424 2.201547 -0.596679 1.417047 -1.165989 -0.043461 0.387204 5.722556 -20.290042 4.409583 0.000000 0.000000 0.000000 4.807685 -8.521671 -2.614396 42.607131 41.164608 -27.453084 -10.819381 2.367860 10.675373 9.797854 4.999054 -5.182285 0.000000 0.000000 0.000000 0.000000 0.000000 0.000000 -12.731431 45.775667 3.295700 -16.366697 -11.231196 -6.284118 -18.283968 -8.591426 -3.152128 -16.504017 -25.040706 22.561340 0.000000 0.000000 0.000000 0.000000 0.000000 0.000000 -38.342692 -61.656663 -8.940487 117.869814 10.414810 -60.086790 -110.508242 -25.830936 1.590607 0.000000 0.000000 0.000000 -96.134896 83.593290 98.146569 -151.530659 -48.471699 -151.562143 -30.193691 49.824743 81.641985 0.000000 0.000000 0.000000
-49.110983 67.880315 334.210887 12.155106 5.337118 -2.777744 2.755507 -0.905018 3.021639 -1.096162 0.905309 0.259007 6.260795 -17.227719 2.468442 0.000000 0.000000 0.000000 3.822855 -8.949796 -2.443804 41.262669 41.938600 -26.837480 -10.539988 6.739724 10.779080 14.088914 -1.826415 -2.108037 0.000000 0.000000 0.000000 0.000000 0.000000 0.000000 -13.923764 46.158850 3.176543 -15.247439 -12.162752 -5.558530 48.179294 -26.058785 21.498058 -75.428106 -8.748007 31.893928 0.000000 0.000000 0.000000 0.000000 0.000000 0.000000 -34.671199 -61.318482 -5.374631 118.812683 9.940681 -58.636824 -119.136185 -31.726457 2.669042 0.000000 0.000000 0.000000 -84.515137 81.066918 84.849549 -154.600756 -44.733576 -154.893998 -33.530101 55.385194 86.772620 0.000000 0.000000 0.000000
-49.430022 68.051044 332.774983 11.883592 6.984360 -6.197274 3.229841 0.035992 6.159360 -1.528210 -0.948040 0.483777 6.961927 -15.101564 1.076390 0.000000 0.000000 0.000000 3.474143 -9.560566 -2.188166 38.015195 41.715825 -24.603745 -10.150727 10.615686 10.823578 14.148337 -9.751260 0.052062 0.000000 0.000000 0.000000 0.000000 0.000000 0.000000 -13.517294 46.590610 3.312840 -16.249676 -12.721906 -6.508374 78.751123 -6.501815 35.472425 -108.559239 -4.040499 22.909059 0.000000 0.000000 0.000000 0.000000 0.000000 0.000000 -30.794548 -66.710036 -2.191263 120.107291 8.626227 -61.555646 -136.360170 -45.067253 -8.913176 0.000000 0.000000 0.000000 -69.596051 76.293749 69.388039 -155.659971 -44.162753 -155.902670 -35.644644 58.632982 89.957046 0.000000 0.000000 0.000000
